<svg xmlns="http://www.w3.org/2000/svg" width="40" height="47" viewBox="0 0 40 47">
  <g fill="#3BB338" stroke="#3BB338" stroke-width=".8" opacity=".902" transform="translate(1 1)">
    <path d="M21.185 4.9h-1.497V3.404a.703.703 0 0 0-1.407 0v1.498h-1.497a.703.703 0 1 0 0 1.406h1.497v1.498a.703.703 0 0 0 1.407 0V6.307h1.497a.703.703 0 0 0 0-1.406z"/>
    <path d="M25.559 26.793a.703.703 0 0 0-.17-.067 18.545 18.545 0 0 0-2.28-.668 9.513 9.513 0 0 0 5.368-8.557V4.704A4.707 4.707 0 0 0 23.783 0h-9.597a4.707 4.707 0 0 0-4.694 4.704V17.5a9.513 9.513 0 0 0 5.38 8.56c-.782.17-1.551.39-2.304.658a.703.703 0 0 0-.147.06A18.731 18.731 0 0 0 .285 44.297a.703.703 0 0 0 1.406 0 17.314 17.314 0 0 1 9.784-15.578 29.148 29.148 0 0 0-.802 4.402 4.57 4.57 0 0 0-3.81 4.496v5.39a.633.633 0 0 1 0 .351c0 .907.735 1.642 1.641 1.642a.703.703 0 0 0 0-1.406.236.236 0 0 1-.235-.236.633.633 0 0 1 0-.351v-5.39a3.164 3.164 0 1 1 6.328 0v5.39a.633.633 0 0 1 0 .351c0 .13-.106.236-.236.236a.703.703 0 0 0 0 1.406c.907 0 1.642-.735 1.642-1.642a.633.633 0 0 1 0-.351v-5.39a4.57 4.57 0 0 0-3.913-4.51c.169-1.466.566-3.91 1.14-5.116l.108-.038 5.08 6.929a.703.703 0 0 0 1.136 0l5.073-6.93.134.046c1.24 2.156 1.74 5.457 1.902 6.856a3.386 3.386 0 1 0 1.406-.028 25.087 25.087 0 0 0-1.35-5.998 17.31 17.31 0 0 1 9.573 15.469.703.703 0 0 0 1.406 0 18.731 18.731 0 0 0-12.14-17.504zm3.867 11.359a1.983 1.983 0 1 1-2.004-1.983 1.986 1.986 0 0 1 1.993 1.983h.01zM27.07 13.493c-4.366-.158-7.066-1.484-8.5-2.486h8.5v2.486zm-16.172-8.79a3.301 3.301 0 0 1 3.288-3.297h9.597a3.301 3.301 0 0 1 3.287 3.298v4.894H10.898V4.704zm0 12.798v-6.497H16.4c.844.9 3.99 3.67 10.67 3.895v2.602a8.095 8.095 0 0 1-16.19 0h.018zm8.086 15.774l-4.218-5.751a17.283 17.283 0 0 1 8.437 0l-4.219 5.751z"/>
  </g>
</svg>
