<svg xmlns="http://www.w3.org/2000/svg" viewBox="0 0 10 16">
  <g fill-rule="evenodd" transform="translate(0 .638)">
    <path fill-rule="nonzero" d="M1.13685345,0.0624431034 C0.511893103,0.0624431034 0,0.582468966 0,1.21007241 L0,13.7477931 C0,14.3753966 0.511032759,14.8900345 1.13685345,14.8900345 L8.51293103,14.8900345 C9.13998448,14.8900345 9.65517241,14.3747241 9.65517241,13.7477931 L9.65517241,1.21007241 C9.65517241,0.583136207 9.13912586,0.0624431034 8.51293103,0.0624431034 L1.13685345,0.0624431034 Z M1.13685345,0.40727069 L8.51293103,0.40727069 C8.95153103,0.40727069 9.31034483,0.769798276 9.31034483,1.21007241 L9.31034483,2.70252931 L9.31034483,2.8749431 L9.13793103,2.8749431 L0.517241379,2.8749431 L0.344827586,2.8749431 L0.344827586,2.70252931 L0.344827586,1.21007241 C0.344827586,0.770813793 0.699913793,0.40727069 1.13685345,0.40727069 Z M0.344827586,3.21976897 L0.517241379,3.21977069 L9.13793103,3.21977069 L9.31034483,3.21976897 L9.31034483,3.39218448 L9.31034483,11.5656724 L9.31034483,11.7380862 L9.13793103,11.7380862 L0.517241379,11.7380862 L0.344827586,11.7380862 L0.344827586,11.5656724 L0.344827586,3.39218276 L0.344827586,3.21976897 Z M0.344827586,12.0829138 L0.517241379,12.0829138 L9.13793103,12.0829138 L9.31034483,12.0829138 L9.31034483,12.2553276 L9.31034483,13.7477931 C9.31034483,14.188069 8.94972931,14.5452069 8.51293103,14.5452069 L1.13685345,14.5452069 C0.701727586,14.5452069 0.344827586,14.1870517 0.344827586,13.7477931 L0.344827586,12.2553276 L0.344827586,12.0829138 Z"/>
    <path fill-rule="nonzero" d="M4.82758621,12.6163276 C4.44204138,12.6163276 4.12176724,12.9366379 4.12176724,13.3221379 C4.12176724,13.7080862 4.4435569,14.022569 4.82758621,14.022569 C5.21205517,14.022569 5.53340517,13.7065862 5.53340517,13.3221379 C5.53340517,12.9381379 5.21355862,12.6163276 4.82758621,12.6163276 Z M4.82758621,12.9611552 C5.02155345,12.9611552 5.18857759,13.1301897 5.18857759,13.3221379 C5.18857759,13.5132069 5.01875862,13.6777414 4.82758621,13.6777414 C4.63552759,13.6777414 4.46659483,13.516069 4.46659483,13.3221379 C4.46659483,13.1271552 4.63255862,12.9611552 4.82758621,12.9611552 Z"/>
    <path d="M4.83798448 13.3057069C4.84479483 13.3057069 4.84132931 13.3057069 4.84132931 13.3200172 4.84132931 13.3455 4.85308793 13.3339828 4.82726034 13.3339828 4.80813103 13.3339828 4.81313966 13.3398448 4.81313966 13.3200172 4.81313966 13.3070862 4.81382931 13.3060517 4.82726034 13.3060517 4.83232931 13.3060517 4.83570862 13.3060517 4.83798448 13.3060517L4.83798448 13.3057069zM3.62171379 1.40042759L3.62290345 1.40042759 3.62414483 1.40042759 6.03034138 1.40042759 6.03154828 1.40042759 6.03275517 1.40042759C6.05523621 1.40008276 6.07865 1.40444483 6.09951207 1.41282414 6.12037414 1.42120345 6.14028966 1.43426897 6.1563 1.45005517 6.17231724 1.46583103 6.18560862 1.48556379 6.19428448 1.50630517 6.2029569 1.52704655 6.20764655 1.55036207 6.20764655 1.57284483 6.20764655 1.59532931 6.2029569 1.61864483 6.19428448 1.63938621 6.18561207 1.66012759 6.17231034 1.67985172 6.1563 1.69563621 6.14028276 1.71142931 6.12037414 1.72448448 6.09951207 1.73286724L6.09916724 1.73302931C6.0784 1.74130517 6.05513276 1.74558103 6.03278793 1.74525345L6.03158103 1.74525345 6.03037414 1.74525345 3.62417759 1.74525345 3.62293621 1.74525345 3.62174655 1.74525345C3.59926724 1.74559828 3.57585345 1.74123621 3.55499138 1.7328569 3.53417586 1.72449483 3.51430172 1.71147241 3.49831034 1.69573448L3.4982069 1.69562759C3.48219828 1.67983448 3.4689 1.66011897 3.46022241 1.63937759 3.45154483 1.61863621 3.44686034 1.59531897 3.44686034 1.57283621 3.44686034 1.55035345 3.45154483 1.52703621 3.46022241 1.50629483 3.4689 1.48555345 3.48219828 1.46583103 3.4982069 1.45004483 3.51421724 1.43426897 3.53413448 1.42119828 3.55499655 1.41281552 3.57585862 1.40443621 3.59927241 1.40010862 3.62175345 1.40041897L3.62171379 1.40042759z"/>
  </g>
</svg>
