<svg xmlns="http://www.w3.org/2000/svg" width="49" height="47" viewBox="0 0 49 47">
  <g fill="#3BB338" fill-rule="evenodd" stroke="#3BB338" stroke-width=".5" transform="translate(0 1)">
    <g transform="translate(0 25.28)">
      <path d="M22.073 12.148h-1.497a2.997 2.997 0 0 1 2.994-2.994h8.235a1.498 1.498 0 0 0 0-2.994h-6.869l-8.234-2.994h-6.606V1.669h6.868L25.2 4.663h6.606A2.998 2.998 0 0 1 34.8 7.657a2.997 2.997 0 0 1-2.994 2.994H23.57a1.5 1.5 0 0 0-1.497 1.497z"/>
      <path d="M28.245 19.635h-1.808L13.71 15.143h-3.614v-1.497h3.87l12.727 4.492h1.186l18.438-9.589c.205-.235.46-.63.46-.892 0-.79-.616-1.44-1.394-1.493L33.525 9.869l-.445-1.43 12.2-3.776a2.998 2.998 0 0 1 2.994 2.994c0 1.026-.868 1.926-.967 2.026l-.184.135-18.878 9.817z"/>
      <path d="M9.347 16.64H.364v-1.497h8.983V1.67H.364V.17h8.983a1.5 1.5 0 0 1 1.497 1.498v13.474a1.5 1.5 0 0 1-1.497 1.497z"/>
    </g>
    <path fill-rule="nonzero" d="M27.313 25.603l-.415-.276c-.563-.376-13.808-9.303-13.808-17.84C13.09 3.357 16.45 0 20.576 0c2.97 0 5.527 1.681 6.737 3.632C28.524 1.682 31.08 0 34.051 0c4.127 0 7.486 3.358 7.486 7.486 0 8.537-13.244 17.465-13.808 17.84l-.416.277zM20.576 1.497a5.996 5.996 0 0 0-5.989 5.989c0 6.953 10.49 14.728 12.726 16.307 2.236-1.58 12.726-9.36 12.726-16.307a5.996 5.996 0 0 0-5.989-5.99c-3.417 0-5.989 2.995-5.989 4.492h-1.497c0-1.497-2.57-4.491-5.988-4.491z"/>
  </g>
</svg>
